<?xml version="1.0" encoding="UTF-8"?>
<svg id="Layer_1" data-name="Layer 1" xmlns="http://www.w3.org/2000/svg" viewBox="0 0 200 200">
  <defs>
    <style>
      .cls-1 {
        fill: #fff;
      }
    </style>
  </defs>
  <g id="Layer_2" data-name="Layer 2">
    <g>
      <path class="cls-1" d="M71.88,140.09c-12.65-4.53-23.03-14.14-28.57-26.25,0,0-5.31-12.65-2.86-26.37,2.45-13.72,12.23-21.77,17.9-25.23,9.9-5.91,34.12-20.58,40.92-25.65,6.8-5.25,17.24-14.26,23.32-21.47h0c7.99,6.32,13.12,16.11,13.12,27.14,0,7.46-2.68,15.45-6.92,20.58-4.24,5.13-7.22,8.65-13,13-18.01,13.36-40.68,23.8-46.71,29.23-4.47,4-7.34,9.78-7.34,16.34,0,7.75,4.12,14.67,10.32,18.55"/>
      <path class="cls-1" d="M72,139.97c15.33-18.79,36.92-32.33,61.68-37.46,2.98,3.22,6.02,10.32,6.02,18.31s-5.55,15.03-10.92,19.21c-6.02,4.53-15.21,10.02-22.91,16.11s-24.76,22.07-25.11,28.75c-8.47-5.25-15.45-15.57-15.45-26.25-.12-6.98,2.45-13.54,6.68-18.67"/>
      <path class="cls-1" d="M94.7,116.17c-11.67,7.39-16.3,13.28-22.6,21.82h0c-5.42-3.38-7.86-9.79-7.86-16.61.1-6.09,4.37-10.88,6.2-12.34,5.26,5.73,11.93,7.39,20.26,7.39"/>
    </g>
  </g>
</svg>