<?xml version="1.0" encoding="UTF-8"?>
<svg id="Layer_1" data-name="Layer 1" xmlns="http://www.w3.org/2000/svg" viewBox="0 0 200 200">
  <defs>
    <style>
      .cls-1 {
        fill: #fff;
      }
    </style>
  </defs>
  <path class="cls-1" d="M187.66,164.22l-35.52-61.66c3.71-.53,7.42-1.2,10.62-1.8,1.3-.19,2.43-1.02,3.09-2.28.69-1.32.74-2.84.13-4.06l-.06-.1c-1.04-1.73-2.3-3.96-3.53-6.11-1.55-2.73-3.01-5.32-4.05-6.95-.83-1.57-2.73-2.43-4.47-2.03-4.55.72-9.38,1.45-14.08,1.97l-34.28-59.53c-1.01-2.02-3.03-3.18-5.53-3.18-2.3,0-4.08.99-5.49,3.11l-34.32,59.61c-4.84-.52-9.55-1.26-14.13-1.98l-.23-.02c-.77,0-3.09,0-4.18,2.06-1.04,1.63-2.5,4.22-4.05,6.96-1.22,2.15-2.48,4.37-3.53,6.13-.75,1.32-.81,2.81-.17,4.1.64,1.29,1.88,2.13,3.29,2.31,2.87.54,7.85,1.33,10.71,1.77l-35.55,61.7c-1.34,2.34-1.08,5.1.63,7.14,1.2,1.6,3.37,2.17,4.86,2.17h164.34c1.49,0,3.66-.57,4.82-2.11,1.75-2.1,2.01-4.86.67-7.2ZM152.88,150.38H46.85l25.97-45.08c18.31,1.48,36.03,1.48,54.09,0l25.97,45.08ZM85.78,83.23l14.22-24.66,14.21,24.65c-9.54.38-19.08.38-28.43,0Z"/>
</svg>