<?xml version="1.0" encoding="UTF-8"?>
<svg id="Layer_1" data-name="Layer 1" xmlns="http://www.w3.org/2000/svg" viewBox="0 0 200 200">
  <defs>
    <style>
      .cls-1 {
        opacity: .5;
      }

      .cls-1, .cls-2 {
        fill: #fff;
      }
    </style>
  </defs>
  <path class="cls-1" d="M145.28,101.63c1.92-2.79,4.02-5.49,6.27-8.03.58-.66.82-1.57.66-2.44-.17-.89-.76-1.65-1.56-2.03-2.99-1.45-5.96-3.12-8.83-4.98.71-3.35,1.62-6.62,2.7-9.76.29-.84.17-1.79-.33-2.54-.5-.75-1.34-1.22-2.21-1.26-3.33-.2-6.71-.62-10.06-1.23-.62-3.35-1.03-6.72-1.23-10.03-.04-.87-.5-1.69-1.26-2.23-.74-.5-1.66-.62-2.53-.33-3.15,1.09-6.43,2-9.78,2.72-1.85-2.85-3.53-5.81-4.99-8.79-.39-.82-1.15-1.4-2.04-1.57-.86-.16-1.77.08-2.44.67-2.5,2.22-5.18,4.31-7.98,6.24-2.79-1.92-5.47-4.01-7.99-6.23-.66-.58-1.57-.83-2.43-.66-.89.17-1.65.76-2.03,1.55-1.47,3.01-3.14,5.97-4.99,8.82-3.32-.71-6.6-1.62-9.76-2.7-.84-.29-1.79-.17-2.54.32-.75.5-1.22,1.33-1.26,2.21-.21,3.33-.62,6.71-1.23,10.06-3.39.63-6.76,1.04-10.02,1.24-.87.04-1.7.5-2.21,1.22-.52.73-.65,1.69-.36,2.57,1.09,3.15,1.99,6.43,2.7,9.76-2.88,1.87-5.83,3.54-8.78,4.99-.82.38-1.41,1.15-1.58,2.04-.16.86.08,1.77.67,2.44,2.22,2.5,4.31,5.18,6.24,7.98-1.92,2.79-4.01,5.47-6.24,7.99-.58.66-.82,1.57-.66,2.43.17.89.76,1.65,1.55,2.03,2.97,1.45,5.93,3.12,8.82,4.99-.71,3.32-1.62,6.6-2.7,9.75-.3.84-.18,1.8.32,2.54.5.75,1.33,1.23,2.21,1.27,3.33.2,6.71.62,10.06,1.23.63,3.39,1.04,6.76,1.24,10.02.04.87.5,1.7,1.19,2.18.75.55,1.8.69,2.64.37,3.13-1.08,6.39-1.98,9.72-2.69,1.85,2.84,3.52,5.79,4.97,8.79.39.82,1.15,1.4,2.04,1.57.09.02.18.03.26.03.08,0,.21.02.28.02.68,0,1.35-.25,1.91-.72,2.45-2.18,5.13-4.27,7.98-6.24,2.79,1.92,5.47,4.01,8.01,6.25.52.45,1.19.69,1.87.69.16,0,.36,0,.58-.06.87-.18,1.61-.76,1.98-1.54,1.47-3.01,3.14-5.97,4.99-8.82,3.35.71,6.63,1.62,9.75,2.7.03.01.07.02.1.03.19.05.48.13.83.13.59,0,1.18-.19,1.59-.49.75-.5,1.22-1.33,1.26-2.21.21-3.33.62-6.71,1.23-10.06,3.42-.63,6.79-1.04,10.03-1.23.87-.04,1.69-.5,2.24-1.27.49-.74.62-1.66.33-2.53-1.09-3.16-2-6.43-2.7-9.77,2.85-1.85,5.81-3.52,8.8-4.98.82-.39,1.4-1.15,1.57-2.03.17-.86-.08-1.77-.67-2.45-2.21-2.49-4.3-5.16-6.22-7.95ZM111.07,142.68c-.82,1.35-1.61,2.73-2.37,4.11-1.2-.98-2.46-1.95-3.77-2.9.94-.55,1.9-1.08,2.86-1.6,1.1.11,2.19.24,3.27.38ZM107.42,136.51c-.53-.03-1.04.06-1.55.31-2.1,1.1-4.17,2.29-6.18,3.55-2.16-1.35-4.19-2.52-6.21-3.56-.41-.2-.84-.31-1.27-.31-.11,0-.21,0-.32.02-2.3.2-4.66.51-7.02.9-1.38-1.94-2.84-3.82-4.32-5.6-.35-.44-.82-.76-1.36-.92-2.19-.69-4.5-1.32-6.88-1.87-.53-2.32-1.16-4.64-1.88-6.93-.18-.54-.5-.99-.87-1.29-1.76-1.48-3.66-2.94-5.65-4.36.4-2.37.71-4.74.91-7.09.04-.52-.06-1.04-.32-1.56-1.1-2.11-2.29-4.19-3.55-6.19,1.35-2.15,2.51-4.19,3.55-6.2.24-.48.35-1.01.31-1.55-.2-2.32-.51-4.69-.91-7.07,1.93-1.37,3.82-2.83,5.61-4.32.43-.35.75-.82.92-1.36.7-2.19,1.32-4.5,1.86-6.89,2.42-.56,4.74-1.19,6.91-1.88.49-.16.92-.45,1.3-.88,1.52-1.82,2.99-3.71,4.36-5.65,2.37.4,4.74.7,7.06.91.06,0,.19,0,.25,0,.44,0,.89-.11,1.33-.33,2.11-1.1,4.19-2.29,6.18-3.55,2.03,1.28,4.11,2.47,6.2,3.55.46.23.98.36,1.55.31,2.32-.2,4.69-.51,7.07-.91,1.41,1.98,2.86,3.87,4.33,5.61.33.42.8.74,1.36.92,2.17.69,4.49,1.31,6.9,1.87.53,2.3,1.16,4.62,1.88,6.91.18.54.49,1,.88,1.31,1.78,1.49,3.67,2.95,5.65,4.35-.4,2.38-.71,4.76-.91,7.11-.04.53.07,1.06.31,1.54,1.06,2.03,2.25,4.1,3.54,6.18-1.35,2.16-2.52,4.2-3.55,6.21-.25.51-.36,1.06-.29,1.59.2,2.3.51,4.66.9,7.01-1.98,1.41-3.87,2.86-5.6,4.31-.44.35-.76.83-.92,1.36-.69,2.17-1.32,4.49-1.87,6.89-2.39.55-4.7,1.18-6.91,1.88-.54.18-1,.5-1.31.88-1.49,1.77-2.95,3.67-4.35,5.65-2.39-.4-4.76-.71-7.1-.91ZM91.63,142.3c.96.51,1.92,1.05,2.86,1.6-1.28.93-2.53,1.9-3.76,2.9-.75-1.39-1.54-2.76-2.37-4.12,1.07-.14,2.16-.27,3.26-.38ZM66.12,127.83c-1.57-.25-3.15-.45-4.71-.61.45-1.5.86-3.03,1.23-4.57.88.66,1.74,1.34,2.58,2.03.32,1.06.62,2.11.9,3.15ZM61.4,76.05c1.58-.16,3.15-.37,4.7-.61-.28,1.08-.58,2.13-.89,3.15-.85.7-1.71,1.38-2.57,2.04-.37-1.53-.79-3.06-1.24-4.57ZM58.64,90.31c.14,1.06.27,2.15.38,3.25-.51.96-1.04,1.92-1.6,2.86-.93-1.28-1.9-2.53-2.89-3.75,1.39-.75,2.76-1.54,4.11-2.36ZM57.43,106.87c.56.95,1.09,1.91,1.59,2.85-.11,1.11-.24,2.2-.38,3.27-1.36-.83-2.73-1.62-4.11-2.36,1-1.23,1.97-2.48,2.9-3.76ZM88.34,60.57c.83-1.36,1.61-2.73,2.36-4.11,1.22.99,2.47,1.95,3.76,2.9-.95.56-1.91,1.09-2.86,1.6-1.11-.11-2.2-.24-3.27-.38ZM107.77,60.95c-.97-.52-1.93-1.05-2.87-1.6,1.28-.93,2.54-1.9,3.76-2.9.75,1.39,1.54,2.77,2.37,4.12-1.07.15-2.16.27-3.27.38ZM137.99,127.21c-1.58.16-3.15.36-4.7.61.28-1.08.58-2.13.89-3.16.86-.7,1.71-1.38,2.57-2.03.37,1.53.78,3.06,1.24,4.58ZM133.27,75.41c1.58.25,3.16.45,4.72.61-.46,1.52-.87,3.05-1.24,4.59-.88-.66-1.74-1.34-2.58-2.03-.33-1.06-.63-2.12-.9-3.17ZM144.87,92.61c-1,1.23-1.97,2.49-2.9,3.77-.55-.94-1.08-1.89-1.6-2.85.11-1.11.23-2.2.38-3.27,1.35.82,2.73,1.61,4.12,2.36ZM140.76,112.97c-.14-1.07-.27-2.15-.38-3.26.51-.97,1.05-1.92,1.59-2.86.93,1.28,1.9,2.53,2.89,3.75-1.39.75-2.76,1.54-4.11,2.36ZM125.29,63.32c.16,1.58.37,3.15.61,4.7-1.08-.28-2.14-.58-3.16-.89-.68-.82-1.36-1.68-2.03-2.57,1.54-.37,3.07-.79,4.59-1.24ZM74.1,63.34c1.5.45,3.03.86,4.58,1.23-.66.88-1.34,1.74-2.03,2.58-1.05.32-2.1.62-3.15.9.25-1.58.45-3.15.61-4.71ZM74.12,139.92c-.16-1.58-.37-3.15-.61-4.7,1.08.28,2.13.58,3.15.89.69.83,1.37,1.69,2.03,2.57-1.53.37-3.06.79-4.57,1.24ZM125.29,139.91c-1.5-.45-3.03-.86-4.57-1.23.66-.88,1.34-1.74,2.03-2.58,1.05-.32,2.1-.62,3.15-.9-.25,1.57-.45,3.15-.61,4.71Z"/>
  <path class="cls-2" d="M189.9,100.5v-.17c0-1.57-1.29-2.85-2.91-2.85-11.36,0-22.37-2.26-32.75-6.72,7.89-8.12,17.2-14.43,27.69-18.77,1.45-.58,2.16-2.19,1.59-3.72-.32-.79-.65-1.58-.99-2.4-.3-.68-.85-1.22-1.54-1.5-.71-.29-1.52-.28-2.18,0-10.5,4.36-21.55,6.5-32.88,6.34,4.18-10.5,10.36-19.89,18.41-27.95,1.11-1.12,1.11-2.93.01-4.03-.6-.61-1.2-1.21-1.83-1.83-1.12-1.08-2.92-1.06-4.01.03-8.04,8.05-17.43,14.24-27.93,18.42-.15-11.32,1.97-22.37,6.33-32.92.58-1.45-.08-3.08-1.5-3.7-.78-.34-1.57-.66-2.39-1-1.45-.58-3.12.13-3.71,1.57-4.35,10.53-10.67,19.85-18.79,27.76-4.48-10.38-6.76-21.41-6.77-32.82,0-1.57-1.23-2.83-2.86-2.87h-.35c-.64-.01-1.29-.01-1.89,0h-.29c-1.54.04-2.79,1.33-2.79,2.87,0,11.4-2.26,22.43-6.74,32.83-8.12-7.88-14.45-17.21-18.82-27.75-.28-.71-.83-1.27-1.53-1.57-.7-.3-1.48-.31-2.17-.03-.79.31-1.58.65-2.34.98-1.43.61-2.11,2.3-1.5,3.77,4.37,10.54,6.5,21.6,6.34,32.91-10.53-4.18-19.95-10.38-28.07-18.49-1.12-1.08-2.92-1.07-4.01.01-.61.59-1.21,1.19-1.79,1.79-1.07,1.12-1.04,2.94.08,4.06,8.05,8.04,14.25,17.44,18.44,27.97-11.33.16-22.42-1.97-32.98-6.34-1.44-.61-3.11.05-3.76,1.5-.33.76-.64,1.53-.97,2.34-.27.68-.26,1.44.04,2.14.32.74.92,1.33,1.63,1.61,10.53,4.36,19.85,10.67,27.75,18.78-10.41,4.49-21.48,6.76-32.93,6.76-1.57,0-2.83,1.23-2.87,2.85v.76c0,.16-.01.33-.01.49v1.22c0,.73.31,1.44.86,1.98.59.57,1.42.91,2.13.88,11.4,0,22.42,2.27,32.81,6.75-7.88,8.12-17.19,14.43-27.65,18.78l-.21.07c-1.46.58-2.17,2.25-1.58,3.71.31.79.65,1.58.99,2.36.45,1.02,1.5,1.68,2.69,1.68.4,0,.79-.08,1.17-.23,10.52-4.36,21.57-6.48,32.91-6.33-4.18,10.51-10.4,19.95-18.51,28.07-.54.54-.84,1.26-.84,2.02s.3,1.48.83,2.01c.59.61,1.19,1.21,1.83,1.83,1.11,1.02,3,.91,4.06-.15,8.06-8.06,17.47-14.26,27.99-18.45.16,11.33-1.96,22.39-6.32,32.95l-.04.12c-.58,1.45.08,3.07,1.51,3.7.76.33,1.53.65,2.31.95.32.14.66.21,1.03.21,1.17,0,2.28-.74,2.77-1.88,4.36-10.54,10.67-19.86,18.79-27.75,4.49,10.41,6.76,21.47,6.76,32.92,0,1.57,1.23,2.83,2.86,2.87h.72c.15,0,.29.01.44.01h1.37c1.55-.04,2.8-1.37,2.8-2.96,0-11.41,2.27-22.44,6.75-32.83,8.12,7.89,14.45,17.23,18.83,27.82.44,1.08,1.49,1.78,2.66,1.78.34,0,.69-.07,1.07-.21.78-.32,1.56-.64,2.34-.98,1.41-.62,2.07-2.32,1.47-3.79-4.36-10.53-6.49-21.58-6.32-32.91,10.52,4.18,19.93,10.38,28.01,18.46,1.07,1.07,3,1.06,4.04.02.6-.59,1.19-1.18,1.79-1.79,1.08-1.12,1.05-2.93-.05-4.03-8.06-8.06-14.26-17.47-18.45-27.99,11.32-.14,22.41,1.97,33.04,6.37.31.12.65.17.99.17,1.15,0,2.18-.69,2.63-1.73.33-.77.66-1.56.96-2.34.57-1.43-.13-3.1-1.59-3.72-10.54-4.37-19.86-10.69-27.75-18.8,10.38-4.47,21.4-6.75,32.8-6.76,1.57,0,2.83-1.23,2.87-2.86v-.74c0-.15.01-.3.01-.46v-.93c0-.08,0-.15-.01-.23ZM99.71,147.23c2.21,1.52,4.34,3.14,6.36,4.85-2.91,6.36-5.03,12.98-6.35,19.78-1.33-6.8-3.45-13.42-6.37-19.79,2.05-1.73,4.18-3.35,6.36-4.84ZM101.27,141.35c-.97-.63-2.21-.62-3.13,0-2.53,1.66-5.02,3.49-7.41,5.44-1.47-2.74-3.07-5.37-4.75-7.83-.53-.81-1.43-1.28-2.39-1.28-.18,0-.36.02-.54.05-3,.58-6,1.31-8.93,2.2-.31-3.07-.78-6.12-1.41-9.11-.25-1.12-1.13-1.98-2.21-2.19-2.94-.61-5.99-1.08-9.09-1.39.9-2.99,1.63-5.99,2.19-8.94.2-1.1-.26-2.24-1.21-2.9-2.49-1.69-5.12-3.29-7.87-4.77,1.98-2.43,3.81-4.92,5.45-7.43.62-.95.62-2.18,0-3.13-1.64-2.51-3.47-5-5.44-7.41,2.7-1.45,5.33-3.05,7.83-4.75.96-.63,1.45-1.77,1.24-2.93-.57-3-1.31-5.99-2.2-8.93,3.07-.31,6.12-.78,9.12-1.41,1.12-.25,1.98-1.13,2.19-2.21.61-2.94,1.08-5.99,1.39-9.1,3,.9,5.99,1.63,8.93,2.19.08.02.17.03.26.03.08,0,.21.02.28.02.95,0,1.83-.47,2.37-1.25,1.7-2.5,3.3-5.14,4.77-7.86,2.43,1.98,4.93,3.81,7.44,5.46.88.56,2.08.6,3.04.04.03-.02.06-.04.09-.06,2.53-1.66,5.02-3.49,7.41-5.44,1.48,2.75,3.08,5.39,4.77,7.87.53.78,1.42,1.25,2.37,1.25.16,0,.35,0,.57-.05,2.96-.57,5.95-1.3,8.92-2.19.31,3.05.78,6.1,1.4,9.13.25,1.13,1.13,1.99,2.21,2.19,2.94.61,6,1.08,9.11,1.39-.9,2.98-1.63,5.98-2.2,8.95-.21,1.11.26,2.24,1.2,2.9,2.47,1.68,5.11,3.28,7.87,4.77-1.96,2.4-3.79,4.9-5.46,7.44-.62.95-.62,2.18,0,3.13.04.06.08.11.12.17,1.63,2.46,3.41,4.88,5.31,7.21-2.74,1.47-5.37,3.07-7.83,4.75-.97.63-1.45,1.78-1.24,2.93.58,3,1.31,6,2.19,8.93-3.07.31-6.12.78-9.12,1.41-1.12.25-1.98,1.13-2.19,2.21-.61,2.93-1.08,5.98-1.39,9.1-3.01-.9-6-1.64-8.93-2.19-1.11-.21-2.24.26-2.9,1.21-1.72,2.52-3.31,5.16-4.77,7.86-2.4-1.96-4.89-3.79-7.43-5.45ZM72.79,36.76c3.83,5.79,8.34,11.09,13.47,15.86-1.22,2.35-2.57,4.67-4.02,6.91-2.66-.57-5.25-1.25-7.74-2.04.25-7.01-.33-13.94-1.71-20.74ZM67.46,69.41c-2.63.49-5.29.85-7.92,1.08-2.44-6.56-5.62-12.74-9.5-18.49,5.75,3.87,11.93,7.05,18.49,9.49-.23,2.66-.59,5.31-1.07,7.92ZM55.54,76.47c.81,2.54,1.49,5.13,2.04,7.72-2.25,1.46-4.57,2.81-6.92,4.03-4.76-5.11-10.05-9.6-15.84-13.43,6.78,1.37,13.71,1.93,20.72,1.68ZM54.13,101.65c-1.51,2.2-3.13,4.33-4.85,6.36-6.37-2.91-12.99-5.03-19.8-6.35,6.81-1.33,13.43-3.45,19.8-6.37,1.73,2.06,3.35,4.19,4.85,6.36ZM50.69,115.07c2.35,1.22,4.66,2.56,6.91,4.02-.57,2.66-1.25,5.25-2.04,7.74-6.99-.25-13.93.32-20.73,1.7,5.79-3.83,11.08-8.33,15.86-13.46ZM68.57,141.81c-6.56,2.44-12.74,5.62-18.49,9.5,3.87-5.74,7.04-11.92,9.49-18.49,2.66.23,5.31.59,7.92,1.07.49,2.63.85,5.29,1.08,7.92ZM74.54,145.8c2.55-.81,5.14-1.49,7.74-2.04,1.46,2.25,2.81,4.57,4.03,6.92-5.13,4.78-9.63,10.08-13.46,15.87,1.38-6.8,1.95-13.74,1.7-20.75ZM99.67,31.41c1.33,6.79,3.45,13.41,6.37,19.78-2.06,1.73-4.19,3.35-6.36,4.84-2.21-1.52-4.34-3.14-6.36-4.84,2.91-6.37,5.03-12.98,6.36-19.78ZM170.06,101.61c-6.84,1.32-13.49,3.46-19.9,6.38-1.71-2.04-3.33-4.17-4.84-6.36,1.51-2.2,3.14-4.34,4.86-6.39,6.4,2.92,13.04,5.04,19.89,6.36ZM148.75,88.18c-2.34-1.21-4.66-2.56-6.92-4.03.56-2.61,1.24-5.2,2.04-7.74,7.03.25,13.97-.33,20.79-1.72-5.8,3.83-11.12,8.34-15.9,13.49ZM130.87,61.44c6.58-2.46,12.78-5.65,18.54-9.54-3.89,5.76-7.08,11.96-9.54,18.55-2.67-.23-5.33-.59-7.93-1.07-.48-2.6-.84-5.26-1.07-7.94ZM124.88,57.45c-2.54.81-5.14,1.49-7.75,2.05-1.41-2.18-2.76-4.49-4.02-6.91,5.15-4.8,9.66-10.12,13.49-15.93-1.39,6.81-1.97,13.76-1.72,20.78ZM126.61,166.53c-3.83-5.79-8.33-11.09-13.47-15.87,1.24-2.39,2.59-4.7,4.02-6.91,2.61.56,5.2,1.24,7.74,2.04-.25,7,.32,13.93,1.71,20.74ZM131.96,133.87c2.59-.48,5.24-.84,7.92-1.08,2.44,6.56,5.61,12.73,9.48,18.47-5.74-3.87-11.92-7.03-18.48-9.48.23-2.67.59-5.33,1.07-7.92ZM141.85,119.08c2.25-1.46,4.56-2.81,6.91-4.02,4.77,5.13,10.08,9.63,15.87,13.46-5.75-1.17-11.6-1.76-17.5-1.76-1.13,0-2.21.02-3.25.06-.8-2.55-1.49-5.14-2.04-7.74Z"/>
</svg>