<?xml version="1.0" encoding="UTF-8"?>
<svg id="Layer_1" xmlns="http://www.w3.org/2000/svg" xmlns:xlink="http://www.w3.org/1999/xlink" version="1.1" viewBox="0 0 505.2 505.2">
  <!-- Generator: Adobe Illustrator 30.5.1, SVG Export Plug-In . SVG Version: 2.1.4 Build 3)  -->
  <defs>
    <style>
      .st0 {
        fill: url(#linear-gradient);
      }

      .st1 {
        fill: #fff;
      }
    </style>
    <linearGradient id="linear-gradient" x1="460.7" y1="-24.7" x2="32.5" y2="547.3" gradientTransform="translate(0 505.9) scale(1 -1)" gradientUnits="userSpaceOnUse">
      <stop offset="0" stop-color="#1e1e1e"/>
      <stop offset=".2" stop-color="#242424"/>
      <stop offset=".5" stop-color="#383838"/>
      <stop offset=".9" stop-color="#575757"/>
      <stop offset="1" stop-color="#616161"/>
    </linearGradient>
  </defs>
  <rect class="st0" width="505.2" height="505.2"/>
  <path class="st1" d="M424.4,252.6c.8-68.1-42.9-133.4-106.1-158.8-112.7-46.8-237.7,36.7-237.6,158.8-.1,122.1,124.8,205.5,237.6,158.8,63.1-25.4,106.8-90.7,106.1-158.8h0ZM448.4,252.6c.9,77.5-48.9,152-120.9,180.9-128.5,53.3-270.9-41.8-270.8-180.9-.1-139.1,142.3-234.2,270.8-180.9,71.9,28.9,121.8,103.4,120.9,180.9h0Z"/>
  <g id="path1030">
    <path class="st1" d="M273.1,288.8c-.1-8.6,8.6-15.1,17-12.2,8.9,2.9,12,13.5,7.2,20.9-8.7,13.3-28.5,5.6-28.4-9.5l3.3-8.3-3.3,8.3c-.2-9.7,8.1-18.8,18-19,14.7-.4,25.4,13,23.3,27.1-1.4,13.7-13.4,25.9-27.5,26.5-5.5.3-11.3-.7-16.4-2.8-15.2-5.9-25.4-21.6-25.7-37.7-.6-21.5,11-42.9,29.8-53.7,11-6.4,24.1-8.5,36.7-7.1,35.8,3.3,66.3,31.6,74.7,66.1,2.9,11.1,3.4,22.8,2.5,34.2-1.1,15.2-4.7,30.3-10.7,44.4-6.4,15.4-15.8,29.6-27.2,41.7-16.4,17.2-37.5,30-60.5,36.3-10.9,2.9-22.1,4.4-33.3,4.4-6.6,0-12-5.3-12.1-12,0-6.7,5.4-12.1,12.1-12,18.3,0,36.4-4.9,52.2-14.1,20.9-12.1,37.4-31.4,46.7-53.6,5.4-12.7,8.4-26.5,9.1-40.3,1.1-16.3-3.2-33-13.1-46.2-12.4-16.8-33.8-27.7-54.7-24.7-15.2,2.6-26.7,16.6-28,31.8,0,1.6-.2,3.9,0,5.4.6,7.3,5.9,14.1,13.1,15.7h.5c0,0,1,.2,1,.2.5,0,1.1,0,1.6,0,3.2,0,5.5-3.1,5.5-6.3,0,.3.6.7,1,.7h.3c2.7,0,5.3-2.6,5.1-5l-3.3,8.3,3.3-8.3c.1-4-3.7-7.8-7.8-7.6-5.9-.1-10.6,5.6-9.4,11.2,2.9,12.9,21.1,10.1,21.3-2.7-.6,15.9-23.4,15.9-24,0h0Z"/>
  </g>
</svg>