<?xml version="1.0" encoding="UTF-8"?>
<svg id="Layer_1" data-name="Layer 1" xmlns="http://www.w3.org/2000/svg" viewBox="0 0 368.06 368.31">
  <defs>
    <style>
      .cls-1 {
        fill: #fff;
      }
    </style>
  </defs>
  <path class="cls-1" d="M249.03,27.23C137.58-19,14.08,63.48,14.19,184.16c-.11,120.67,123.39,203.15,234.84,156.92,62.39-25.1,105.59-89.67,104.83-156.92.76-67.26-42.44-131.82-104.83-156.92ZM280.51,298.8c2.55-4.16,4.87-8.46,6.9-12.9,5.95-13.14,9.65-27.37,10.68-41.75.81-9.82.39-19.98-2.14-29.58-8.67-35.38-43.72-62.36-80.58-56.72-16.44,2.83-30.66,14.72-37.05,29.99-6.9,16.52-6.23,35.71,7.89,48.23,9.76,8.69,25.82,12.01,36.89,3.91,13.37-9.42,15.55-31.69-.59-39.39-11.25-5.34-23.7,1.93-23.83,14.3l2.77-6.91-2.77,6.91c-.01,2.46.69,4.97,2,7.17-4.04-2.85-6.57-7.8-6.64-12.78-.07-.84.12-2.85.13-3.74,1.2-13.36,11.28-25.74,24.73-28,18.38-2.62,37.16,6.89,48,21.66,9.39,12.53,12.76,27.98,11.24,43.44-.86,12.06-3.96,23.95-8.93,34.96-8.33,18.23-22.23,33.99-39.59,44.05-13.79,8.07-29.64,12.31-45.6,12.35-.43,0-.86.03-1.28.08-78.51-.79-148.63-64.49-148.56-149.92-.1-106.47,108.86-179.22,207.18-138.45,55.05,22.15,93.16,79.08,92.49,138.45.5,43.92-20.24,86.49-53.34,114.65ZM218.69,214.89l-.99,2.47h0c.54-1.34.99-2.47.99-2.47h0Z"/>
</svg>